<?xml version="1.0" encoding="UTF-8" standalone="no"?>
<!DOCTYPE svg PUBLIC "-//W3C//DTD SVG 1.1//EN" "http://www.w3.org/Graphics/SVG/1.1/DTD/svg11.dtd">
<svg version="1.1" xmlns="http://www.w3.org/2000/svg" xmlns:xlink="http://www.w3.org/1999/xlink" preserveAspectRatio="xMidYMid meet" viewBox="0 0 62 62" width="62" height="62"><defs><path d="M45.75 60.25C41.29 58.54 38.83 55.24 38.23 50.51C38.04 48.97 38.24 47.5 38.73 46.06C38.88 45.64 38.72 45.42 38.45 45.15C31.11 37.82 23.76 30.49 16.45 23.13C15.76 22.44 15.22 22.2 14.19 22.48C8.4 24.05 1.7 20.4 0.28 13.74C0.15 13.1 0.09 12.45 0 11.81C0 11.61 0 11.41 0 11.21C0.2 10.17 0.37 9.12 0.61 8.09C0.73 7.57 0.97 7.09 1.18 6.53C1.4 6.73 1.55 6.88 1.7 7.02C4.01 9.32 6.3 11.63 8.61 13.92C9.92 15.22 11.62 15.58 13.07 14.88C15.54 13.7 16.02 10.64 14.02 8.61C11.71 6.28 9.39 3.98 7.07 1.67C6.92 1.52 6.68 1.46 6.54 1.29C8.52 0.23 10.49 -0.16 12.54 0.06C16.23 0.46 19.15 2.21 21.11 5.37C22.92 8.29 23.42 11.45 22.38 14.77C22.23 15.23 22.29 15.51 22.64 15.85C30.15 23.34 37.66 30.85 45.16 38.37C45.5 38.71 45.76 38.78 46.24 38.63C52.55 36.61 59.89 40.74 60.88 47.93C60.9 48.04 60.96 48.15 61 48.26C61 48.51 61 50.51 61 50.76C60.96 50.91 60.91 51.06 60.87 51.21C60.58 52.26 60.29 53.32 59.96 54.5C59.66 54.22 59.5 54.07 59.35 53.92C57.03 51.61 54.73 49.28 52.4 46.98C50.61 45.22 47.99 45.35 46.56 47.23C45.38 48.77 45.57 50.86 47.05 52.36C49.36 54.68 51.68 56.99 54 59.3C54.15 59.45 54.29 59.61 54.48 59.82C53.94 60.03 53.48 60.27 52.99 60.38C51.97 60.62 50.94 60.8 49.92 61C49.87 61 49.63 61 49.21 61C47.62 60.78 46.47 60.53 45.75 60.25Z" id="kpGrbfnnQ"></path><path d="M2.8 49.96C8.62 44.18 14.42 38.38 20.22 32.58C20.38 32.41 20.49 32.18 20.61 32C23.46 34.86 26.17 37.58 29 40.41C28.85 40.52 28.62 40.64 28.45 40.81C22.67 46.57 16.89 52.33 11.13 58.12C9.84 59.42 8.53 60.62 6.66 61C6.49 61 5.13 61 4.96 61C4.85 60.96 4.75 60.91 4.63 60.88C3.27 60.57 2.16 59.89 1.26 58.81C0.59 57.99 0.3 57.02 0 56.04C0 55.93 0 55.37 0 54.35C1.02 52.27 1.95 50.8 2.8 49.96Z" id="aDJNwmxtg"></path><path d="M60.63 4.76C59.42 7.07 58.23 9.39 57 11.7C56.86 11.97 56.6 12.23 56.33 12.37C53.96 13.61 51.57 14.82 49.19 16.05C48.89 16.21 48.59 16.43 48.35 16.67C45.36 19.63 42.38 22.59 39.41 25.56C39.25 25.71 39.12 25.88 39.02 26C37.66 24.65 36.36 23.35 35 22C35.07 21.92 35.21 21.77 35.36 21.62C38.34 18.66 41.32 15.69 44.29 12.72C44.56 12.45 44.8 12.13 44.98 11.79C46.21 9.45 47.43 7.09 48.66 4.75C48.76 4.55 48.89 4.31 49.08 4.21C51.72 2.83 54.38 1.47 57.23 0C58.47 1.3 59.73 2.63 61 3.96C61 3.97 61 4.05 61 4.19C60.82 4.44 60.7 4.63 60.63 4.76Z" id="dT17aPGVS"></path></defs><g><g><g><use xlink:href="#kpGrbfnnQ" opacity="1" fill="#9B9B9B" fill-opacity="1"></use><g><use xlink:href="#kpGrbfnnQ" opacity="1" fill-opacity="0" stroke="#000000" stroke-width="1" stroke-opacity="0"></use></g></g><g><use xlink:href="#aDJNwmxtg" opacity="1" fill="#9B9B9B" fill-opacity="1"></use><g><use xlink:href="#aDJNwmxtg" opacity="1" fill-opacity="0" stroke="#000000" stroke-width="1" stroke-opacity="0"></use></g></g><g><use xlink:href="#dT17aPGVS" opacity="1" fill="#9B9B9B" fill-opacity="1"></use><g><use xlink:href="#dT17aPGVS" opacity="1" fill-opacity="0" stroke="#000000" stroke-width="1" stroke-opacity="0"></use></g></g></g></g></svg>